<svg xmlns="http://www.w3.org/2000/svg" xmlns:xlink="http://www.w3.org/1999/xlink" version="1.1" width="595.276pt" height="410.321pt" viewBox="0 0 595.276 410.321">
<defs>
<clipPath id="clip_0">
<path transform="matrix(1,0,0,-1,0,410.321)" d="M0 410.321H595.276V0H0Z"/>
</clipPath>
</defs>
<g id="layer_1" data-name="Layer">
<g clip-path="url(#clip_0)">
<path transform="matrix(1,0,0,-1,266.7837,331.89283)" d="M0 0C.366 .42 .55 1.08 .55 1.978V3.681C.55 4.724 .339 5.461-.083 5.892-.504 6.322-1.191 6.538-2.143 6.538H-4.011V-.632H-1.73C-.944-.632-.367-.422 0 0M-.398 9.037C.013 9.404 .22 10.072 .22 11.043V12.17C.22 13.031 .055 13.667-.275 14.078-.604 14.491-1.145 14.697-1.896 14.697H-4.011V8.488H-2.363C-1.465 8.488-.811 8.67-.398 9.037M1.346 15.604C2.005 14.907 2.335 13.835 2.335 12.39V11.482C2.335 10.421 2.161 9.583 1.813 8.969 1.464 8.355 .888 7.92 .082 7.664 1.804 7.187 2.665 5.814 2.665 3.544V1.922C2.665 .457 2.303-.659 1.58-1.43 .856-2.199-.248-2.583-1.73-2.583H-6.153V16.647H-1.84C-.376 16.647 .687 16.3 1.346 15.604" fill="#030505"/>
<path transform="matrix(1,0,0,-1,287.8545,325.68434)" d="M0 0H-4.697V-6.841H1.072V-8.792H-6.84V10.439H1.072V8.488H-4.697V1.923H0Z" fill="#030505"/>
<path transform="matrix(1,0,0,-1,307.25,328.7614)" d="M0 0-2.171 11.099-4.286 0ZM-5.303-5.715H-7.28L-3.6 13.516H-.495L3.187-5.715H1.044L.302-1.841H-4.561Z" fill="#030505"/>
<path transform="matrix(1,0,0,-1,326.0127,332.717)" d="M0 0C.751 0 1.31 .238 1.676 .714 2.042 1.189 2.226 1.877 2.226 2.773V17.472H4.231V2.883C4.231 1.363 3.874 .174 3.16-.687 2.445-1.548 1.364-1.979-.083-1.979-1.511-1.979-2.582-1.543-3.297-.673-4.011 .196-4.367 1.382-4.367 2.883V17.472H-2.253V2.773C-2.253 .924-1.502 0 0 0" fill="#030505"/>
<path transform="matrix(1,0,0,-1,344.7764,317.196)" d="M0 0H-3.544V1.951H5.687V0H2.143V-17.28H0Z" fill="#030505"/>
<path transform="matrix(1,0,0,-1,360.9023,315.2453)" d="M0 0H2.225L5.219-9.45 8.241 0H10.274L6.181-12.334V-19.231H4.065V-12.334Z" fill="#030505"/>
<path transform="matrix(1,0,0,-1,411.6289,315.2453)" d="M0 0H2.143V-17.28H7.638V-19.231H0Z" fill="#030505"/>
<path transform="matrix(1,0,0,-1,433.0293,332.00273)" d="M0 0C.384-.477 .952-.714 1.703-.714 3.223-.714 3.983 .209 3.983 2.059V12.225C3.983 13.104 3.795 13.786 3.42 14.271 3.045 14.757 2.473 15 1.703 15 .952 15 .384 14.757 0 14.271-.385 13.786-.576 13.104-.576 12.225V2.059C-.576 1.163-.385 .475 0 0M-1.579 15.659C-.838 16.52 .257 16.95 1.703 16.95 3.15 16.95 4.249 16.52 5 15.659 5.751 14.797 6.127 13.616 6.127 12.115V2.169C6.127 .668 5.751-.514 5-1.375 4.249-2.236 3.15-2.665 1.703-2.665 .274-2.665-.815-2.236-1.565-1.375-2.317-.514-2.692 .668-2.692 2.169V12.115C-2.692 13.616-2.321 14.797-1.579 15.659" fill="#030505"/>
<path transform="matrix(1,0,0,-1,455.0898,332.717)" d="M0 0C.75 0 1.309 .238 1.675 .714 2.041 1.189 2.225 1.877 2.225 2.773V17.472H4.23V2.883C4.23 1.363 3.873 .174 3.159-.687 2.444-1.548 1.363-1.979-.083-1.979-1.512-1.979-2.583-1.543-3.298-.673-4.012 .196-4.368 1.382-4.368 2.883V17.472H-2.253V2.773C-2.253 .924-1.503 0 0 0" fill="#030505"/>
<path transform="matrix(1,0,0,-1,471.0225,334.47633)" d="M0 0V19.231H2.721L7.171 5.33V19.231H9.066V0H6.842L1.924 15.55V0Z" fill="#030505"/>
<path transform="matrix(1,0,0,-1,499.3047,316.34403)" d="M0 0C.724-.861 1.086-2.043 1.086-3.544V-5.192H-.947V-3.434C-.947-1.584-1.699-.659-3.2-.659-3.951-.659-4.515-.902-4.89-1.388-5.266-1.873-5.452-2.555-5.452-3.434V-13.6C-5.452-14.479-5.266-15.161-4.89-15.646-4.515-16.131-3.951-16.373-3.2-16.373-1.699-16.373-.947-15.449-.947-13.6V-9.753H-2.926V-7.83H1.086V-13.49C1.086-14.991 .724-16.172 0-17.033-.723-17.895-1.809-18.324-3.255-18.324-4.684-18.324-5.76-17.895-6.483-17.033-7.206-16.172-7.568-14.991-7.568-13.49V-3.544C-7.568-2.043-7.206-.861-6.483 0-5.76 .861-4.684 1.292-3.255 1.292-1.809 1.292-.723 .861 0 0" fill="#030505"/>
<path transform="matrix(1,0,0,-1,518.8789,325.68434)" d="M0 0H-4.697V-6.841H1.071V-8.792H-6.84V10.439H1.071V8.488H-4.697V1.923H0Z" fill="#030505"/>
<path transform="matrix(1,0,0,-1,264.8447,216.72682)" d="M0 0H-37.497V141.608H-44.733V-6.596H-2.959Z" fill="#030505"/>
<path transform="matrix(1,0,0,-1,193.5283,276.13844)" d="M0 0C-11.702-9.512-26.619-15.221-42.875-15.221-80.448-15.221-110.907 15.238-110.907 52.812-110.907 90.385-80.448 120.844-42.875 120.844-26.619 120.844-11.702 115.135 0 105.624L4.959 111.004C-8.05 121.71-24.711 128.141-42.875 128.141-84.478 128.141-118.203 94.415-118.203 52.812-118.203 11.209-84.478-22.517-42.875-22.517-24.711-22.517-8.05-16.086 4.959-5.38Z" fill="#030505"/>
<path transform="matrix(1,0,0,-1,319.2881,216.72682)" d="M0 0H-38.108L-41.055-6.596H0Z" fill="#030505"/>
<path transform="matrix(1,0,0,-1,370.0498,216.72682)" d="M0 0-46.9 104.557H-53.923L-120.406-43.652H-112.746L-50.731 95.193-8.068 0Z" fill="#030505"/>
<path transform="matrix(1,0,0,-1,448.1816,186.27462)" d="M0 0-21.958-49.161-45.863-102.455-75.176-37.052H-83.231L-49.879-111.406-66.388-148.208H-58.727L-20.213-61.979 7.59 0Z" fill="#030505"/>
</g>
</g>
</svg>
